<svg width="40" height="40" viewBox="0 0 60 60" fill="none" xmlns="http://www.w3.org/2000/svg">
<path d="M20 0.0057603C18.8747 0.00617605 18 0.908161 18 2.00579V14.586L20.2734 12.297C20.4609 12.1084 20.7163 12.0023 20.9824 12.002H33.9961C35.1214 12.002 35.998 11.1 35.998 10.002V2.0058C35.998 0.880539 35.1058 -0.000468474 33.9961 1.86895e-07L20 0.0057603ZM38 4.99821V10.0022C38 12.2282 36.1948 14.0042 33.9961 14.0042H24.002V15.0023C24.002 16.1002 24.8786 17.0042 26.0039 17.0042H39.0176C39.2837 17.0042 39.5391 17.1102 39.7266 17.2992L42 19.5863V7.00018C42 5.90251 41.1253 5.00056 40 5.00015L38 4.99821ZM23 5.00016C23.5523 5.00016 24 5.4479 24 6.00017C24 6.55245 23.5523 7.00019 23 7.00019C22.4477 7.00019 22 6.55245 22 6.00017C22 5.4479 22.4477 5.00016 23 5.00016V5.00016ZM27 5.00016C27.5523 5.00016 28 5.4479 28 6.00017C28 6.55245 27.5523 7.00019 27 7.00019C26.4477 7.00019 26 6.55245 26 6.00017C26 5.4479 26.4477 5.00016 27 5.00016V5.00016ZM31 5.00016C31.5523 5.00016 32 5.4479 32 6.00017C32 6.55245 31.5523 7.00019 31 7.00019C30.4477 7.00019 30 6.55245 30 6.00017C30 5.4479 30.4477 5.00016 31 5.00016V5.00016ZM60 18.0003L48.7129 22.7856L53.873 42.0534L60 40.0007V18.0003ZM0 19.0004V42.0007L5.10157 44.6511L15.0586 27.4067L0 19.0004ZM27.8008 29.5533L21.8809 33.9244C20.9785 34.59 20.8113 35.8404 21.4531 36.7135C22.0758 37.5606 23.2202 37.6807 24.3457 37.0612C24.3571 37.0548 27.8618 35.0599 29.7871 34.1158C30.2572 33.8853 30.8862 33.4941 31.5722 33.3482C32.3579 33.1811 33.2554 33.2984 34.3262 33.9166L36.9355 35.4244C37.9292 35.6213 38.9018 35.625 39.7519 35.4323C40.5849 35.2427 41.1548 34.8801 41.3906 34.4655C41.5649 34.1424 41.9022 33.9406 42.2695 33.9401C43.0485 33.9359 43.5329 34.7857 43.1328 35.4538C42.5333 36.5077 41.4275 37.0876 40.2852 37.362C42.647 38.7261 44.9882 40.0794 47.5449 41.5555C48.1578 41.9666 48.4891 42.3695 48.7363 42.7586L51.5371 41.0633L47.3789 25.5377C44.0001 25.9198 43.0001 25.4244 39.5742 25.4243C36.3752 25.461 32.5019 26.2003 27.8008 29.5532V29.5533ZM15.8144 30.1021L7.61718 44.2917L8.96678 45.95L11.0156 42.4011C12.115 40.497 14.5763 39.8369 16.4805 40.9362C17.9867 41.8058 18.7356 43.5542 18.4102 45.1433C19.164 45.0893 19.96 45.2563 20.6777 45.6707C21.9393 46.3991 22.6549 47.6972 22.6738 49.0633C23.5772 48.8969 24.521 49.0478 25.373 49.5399C26.4098 50.1384 27.0771 51.1134 27.2929 52.2098C28.3499 51.8477 29.5285 51.9408 30.5664 52.536C32.3013 53.5354 34.0325 54.5365 35.7656 55.538C36.7034 56.0794 37.9335 55.782 38.4961 54.8075C39.0554 53.8388 38.7062 52.6266 37.7813 52.0809C36.6227 51.4118 35.4641 50.7427 34.3047 50.075C33.4415 49.5694 33.7475 48.269 34.748 48.2078C34.9499 48.1953 35.1273 48.2365 35.3008 48.3406C36.5848 49.082 38.1604 49.9916 39.6348 50.8426C40.5731 51.3844 41.8026 51.0788 42.3652 50.1043C42.905 49.1695 42.6158 47.9809 41.6797 47.407C40.5056 46.7278 39.3408 46.0504 38.164 45.3738C37.3016 44.8829 37.623 43.5751 38.6133 43.5105C38.8144 43.498 38.9949 43.5441 39.168 43.6472C40.8988 44.6474 42.6326 45.6361 44.3652 46.6433C45.3398 47.206 46.5488 46.8654 47.0976 45.9148C47.6603 44.9403 47.3063 43.7256 46.3652 43.1823C42.018 40.6759 37.6729 38.1624 33.3223 35.6529C32.6 35.2361 32.178 35.2539 31.9863 35.3053C31.5815 35.3914 31.2754 35.6189 30.6641 35.9186C28.8806 36.7931 25.3203 38.8171 25.3203 38.8171C23.4547 39.8436 21.1473 39.6705 19.8437 37.8971C18.5436 36.1283 18.9043 33.6275 20.6914 32.3092L22.1836 31.2095C21.1617 31.2394 20.0723 31.2646 19.1641 31.2016C18.4828 31.152 17.4408 31.0412 16.7207 30.6254L15.8144 30.1021ZM12.748 43.4011L10.2461 47.7352C9.68341 48.7096 10.0427 49.9204 10.9805 50.4618C11.9187 51.0034 13.1379 50.7118 13.707 49.741L16.2129 45.4031C16.7755 44.4286 16.434 43.2192 15.4805 42.6687C15.115 42.4578 14.7244 42.3805 14.3418 42.4069C13.7042 42.4491 13.0999 42.792 12.748 43.4011V43.4011ZM18.5449 47.1375C17.9073 47.1796 17.2972 47.5265 16.9453 48.1355C16.1123 49.5784 15.2795 51.0216 14.4453 52.4637C13.8827 53.4383 14.203 54.6335 15.1777 55.1962C16.1523 55.7588 17.3494 55.4383 17.9121 54.4638C18.7447 53.0209 19.5776 51.5784 20.4102 50.1356C20.9728 49.161 20.6264 47.9507 19.6777 47.4031C19.3123 47.1918 18.9275 47.111 18.5449 47.1375V47.1375ZM21.6406 52.0028L19.6445 55.4638C19.082 56.4384 19.4004 57.6316 20.375 58.1943C21.3495 58.7569 22.5467 58.4364 23.1094 57.4619C23.7753 56.3089 24.44 55.158 25.1055 54.0048C25.6681 53.0302 25.3383 51.8297 24.373 51.2713C24.0076 51.0595 23.6111 50.9744 23.2285 51.0008C22.5918 51.0429 21.9936 51.3942 21.6406 52.0028V52.0028ZM26.8379 55.0067L25.8379 56.7392C25.2752 57.7137 25.5998 58.9012 26.5742 59.4638C27.5487 60.0265 28.7401 59.7137 29.3027 58.7392L30.3027 57.0068C30.8654 56.0322 30.5235 54.8246 29.5703 54.2743C29.2048 54.063 28.8084 53.9744 28.4258 54.0009C27.8076 54.0417 27.1894 54.3977 26.8379 55.0067V55.0067ZM32.5703 56.0009C32.5741 56.6878 32.4014 57.3707 32.0352 58.0048L31.0371 59.7334C31.9737 60.2741 33.2037 59.9742 33.7656 59.0009C34.3283 58.0264 33.9871 56.818 33.0351 56.2685L32.5703 56.0009Z" fill="black"/>
</svg>
