<svg width="43" height="43" viewBox="0 0 68 68" fill="none" xmlns="http://www.w3.org/2000/svg">
<g filter="url(#filter0_d_413_281)">
<path d="M24 0.0057603C22.8747 0.00617605 22 0.908161 22 2.00579V14.586L24.2734 12.297C24.4609 12.1084 24.7163 12.0023 24.9824 12.002H37.9961C39.1214 12.002 39.998 11.1 39.998 10.002V2.0058C39.998 0.880539 39.1058 -0.000468474 37.9961 1.86895e-07L24 0.0057603ZM42 4.99821V10.0022C42 12.2282 40.1948 14.0042 37.9961 14.0042H28.002V15.0023C28.002 16.1002 28.8786 17.0042 30.0039 17.0042H43.0176C43.2837 17.0042 43.5391 17.1102 43.7266 17.2992L46 19.5863V7.00018C46 5.90251 45.1253 5.00056 44 5.00015L42 4.99821ZM27 5.00016C27.5523 5.00016 28 5.4479 28 6.00017C28 6.55245 27.5523 7.00019 27 7.00019C26.4477 7.00019 26 6.55245 26 6.00017C26 5.4479 26.4477 5.00016 27 5.00016V5.00016ZM31 5.00016C31.5523 5.00016 32 5.4479 32 6.00017C32 6.55245 31.5523 7.00019 31 7.00019C30.4477 7.00019 30 6.55245 30 6.00017C30 5.4479 30.4477 5.00016 31 5.00016V5.00016ZM35 5.00016C35.5523 5.00016 36 5.4479 36 6.00017C36 6.55245 35.5523 7.00019 35 7.00019C34.4477 7.00019 34 6.55245 34 6.00017C34 5.4479 34.4477 5.00016 35 5.00016V5.00016ZM64 18.0003L52.7129 22.7856L57.873 42.0534L64 40.0007V18.0003ZM4 19.0004V42.0007L9.10157 44.6511L19.0586 27.4067L4 19.0004ZM31.8008 29.5533L25.8809 33.9244C24.9785 34.59 24.8113 35.8404 25.4531 36.7135C26.0758 37.5606 27.2202 37.6807 28.3457 37.0612C28.3571 37.0548 31.8618 35.0599 33.7871 34.1158C34.2572 33.8853 34.8862 33.4941 35.5722 33.3482C36.3579 33.1811 37.2554 33.2984 38.3262 33.9166L40.9355 35.4244C41.9292 35.6213 42.9018 35.625 43.7519 35.4323C44.5849 35.2427 45.1548 34.8801 45.3906 34.4655C45.5649 34.1424 45.9022 33.9406 46.2695 33.9401C47.0485 33.9359 47.5329 34.7857 47.1328 35.4538C46.5333 36.5077 45.4275 37.0876 44.2852 37.362C46.647 38.7261 48.9882 40.0794 51.5449 41.5555C52.1578 41.9666 52.4891 42.3695 52.7363 42.7586L55.5371 41.0633L51.3789 25.5377C48.0001 25.9198 47.0001 25.4244 43.5742 25.4243C40.3752 25.461 36.5019 26.2003 31.8008 29.5532V29.5533ZM19.8144 30.1021L11.6172 44.2917L12.9668 45.95L15.0156 42.4011C16.115 40.497 18.5763 39.8369 20.4805 40.9362C21.9867 41.8058 22.7356 43.5542 22.4102 45.1433C23.164 45.0893 23.96 45.2563 24.6777 45.6707C25.9393 46.3991 26.6549 47.6972 26.6738 49.0633C27.5772 48.8969 28.521 49.0478 29.373 49.5399C30.4098 50.1384 31.0771 51.1134 31.2929 52.2098C32.3499 51.8477 33.5285 51.9408 34.5664 52.536C36.3013 53.5354 38.0325 54.5365 39.7656 55.538C40.7034 56.0794 41.9335 55.782 42.4961 54.8075C43.0554 53.8388 42.7062 52.6266 41.7813 52.0809C40.6227 51.4118 39.4641 50.7427 38.3047 50.075C37.4415 49.5694 37.7475 48.269 38.748 48.2078C38.9499 48.1953 39.1273 48.2365 39.3008 48.3406C40.5848 49.082 42.1604 49.9916 43.6348 50.8426C44.5731 51.3844 45.8026 51.0788 46.3652 50.1043C46.905 49.1695 46.6158 47.9809 45.6797 47.407C44.5056 46.7278 43.3408 46.0504 42.164 45.3738C41.3016 44.8829 41.623 43.5751 42.6133 43.5105C42.8144 43.498 42.9949 43.5441 43.168 43.6472C44.8988 44.6474 46.6326 45.6361 48.3652 46.6433C49.3398 47.206 50.5488 46.8654 51.0976 45.9148C51.6603 44.9403 51.3063 43.7256 50.3652 43.1823C46.018 40.6759 41.6729 38.1624 37.3223 35.6529C36.6 35.2361 36.178 35.2539 35.9863 35.3053C35.5815 35.3914 35.2754 35.6189 34.6641 35.9186C32.8806 36.7931 29.3203 38.8171 29.3203 38.8171C27.4547 39.8436 25.1473 39.6705 23.8437 37.8971C22.5436 36.1283 22.9043 33.6275 24.6914 32.3092L26.1836 31.2095C25.1617 31.2394 24.0723 31.2646 23.1641 31.2016C22.4828 31.152 21.4408 31.0412 20.7207 30.6254L19.8144 30.1021ZM16.748 43.4011L14.2461 47.7352C13.6834 48.7096 14.0427 49.9204 14.9805 50.4618C15.9187 51.0034 17.1379 50.7118 17.707 49.741L20.2129 45.4031C20.7755 44.4286 20.434 43.2192 19.4805 42.6687C19.115 42.4578 18.7244 42.3805 18.3418 42.4069C17.7042 42.4491 17.0999 42.792 16.748 43.4011V43.4011ZM22.5449 47.1375C21.9073 47.1796 21.2972 47.5265 20.9453 48.1355C20.1123 49.5784 19.2795 51.0216 18.4453 52.4637C17.8827 53.4383 18.203 54.6335 19.1777 55.1962C20.1523 55.7588 21.3494 55.4383 21.9121 54.4638C22.7447 53.0209 23.5776 51.5784 24.4102 50.1356C24.9728 49.161 24.6264 47.9507 23.6777 47.4031C23.3123 47.1918 22.9275 47.111 22.5449 47.1375V47.1375ZM25.6406 52.0028L23.6445 55.4638C23.082 56.4384 23.4004 57.6316 24.375 58.1943C25.3495 58.7569 26.5467 58.4364 27.1094 57.4619C27.7753 56.3089 28.44 55.158 29.1055 54.0048C29.6681 53.0302 29.3383 51.8297 28.373 51.2713C28.0076 51.0595 27.6111 50.9744 27.2285 51.0008C26.5918 51.0429 25.9936 51.3942 25.6406 52.0028V52.0028ZM30.8379 55.0067L29.8379 56.7392C29.2752 57.7137 29.5998 58.9012 30.5742 59.4638C31.5487 60.0265 32.7401 59.7137 33.3027 58.7392L34.3027 57.0068C34.8654 56.0322 34.5235 54.8246 33.5703 54.2743C33.2048 54.063 32.8084 53.9744 32.4258 54.0009C31.8076 54.0417 31.1894 54.3977 30.8379 55.0067V55.0067ZM36.5703 56.0009C36.5741 56.6878 36.4014 57.3707 36.0352 58.0048L35.0371 59.7334C35.9737 60.2741 37.2037 59.9742 37.7656 59.0009C38.3283 58.0264 37.9871 56.818 37.0351 56.2685L36.5703 56.0009Z" fill="#9E2F2F"/>
</g>
<defs>
<filter id="filter0_d_413_281" x="0" y="0" width="68" height="68" filterUnits="userSpaceOnUse" color-interpolation-filters="sRGB">
<feFlood flood-opacity="0" result="BackgroundImageFix"/>
<feColorMatrix in="SourceAlpha" type="matrix" values="0 0 0 0 0 0 0 0 0 0 0 0 0 0 0 0 0 0 127 0" result="hardAlpha"/>
<feOffset dy="4"/>
<feGaussianBlur stdDeviation="2"/>
<feComposite in2="hardAlpha" operator="out"/>
<feColorMatrix type="matrix" values="0 0 0 0 0 0 0 0 0 0 0 0 0 0 0 0 0 0 0.25 0"/>
<feBlend mode="normal" in2="BackgroundImageFix" result="effect1_dropShadow_413_281"/>
<feBlend mode="normal" in="SourceGraphic" in2="effect1_dropShadow_413_281" result="shape"/>
</filter>
</defs>
</svg>
