<svg width="35" height="35" viewBox="0 0 40 39" fill="none" xmlns="http://www.w3.org/2000/svg">
<path d="M39.2975 14.8794L34.2926 10.8003V4.27674C34.2926 3.54213 33.6948 2.94439 32.9602 2.94439H29.811C29.0764 2.94439 28.4787 3.54213 28.4787 4.27674V6.06174L21.7911 0.611309C21.3073 0.217174 20.6697 0 19.9958 0C19.3245 0 18.6899 0.215842 18.2088 0.607918L0.702523 14.8793C-0.0928939 15.5274 -0.0451713 16.092 0.0540287 16.3708C0.152987 16.649 0.471662 17.1158 1.49346 17.1158H3.89061V35.8835C3.89061 37.2229 4.97733 38.3124 6.31308 38.3124H13.8833C15.2078 38.3124 16.2452 37.2454 16.2452 35.8835V28.1872C16.2452 27.5276 16.8514 26.9269 17.517 26.9269H22.6042C23.2386 26.9269 23.7548 27.4923 23.7548 28.1872V35.8835C23.7548 37.2001 24.8919 38.3124 26.2379 38.3124H33.687C35.0227 38.3124 36.1094 37.2228 36.1094 35.8835V17.1158H38.5066C39.5284 17.1158 39.8469 16.649 39.946 16.3708C40.0452 16.092 40.0929 15.5274 39.2975 14.8794Z" fill="black"/>
</svg>
