<svg width="40" height="40" viewBox="0 0 43 62" fill="none" xmlns="http://www.w3.org/2000/svg">
<path d="M40.1538 0.352L35.9738 3.12L32.0508 0L33.0298 3.528C31.4881 2.90244 29.7769 2.83175 28.1888 3.328C26.2981 4.02814 24.6924 5.33485 23.6228 7.044L21.6658 6.083L20.4988 8.457C17.645 7.93741 14.6996 8.46753 12.206 9.94952C9.71249 11.4315 7.83908 13.7654 6.93151 16.5205C6.02394 19.2755 6.14346 22.2659 7.268 24.9398C8.39255 27.6136 10.4462 29.7905 13.0501 31.0688C15.654 32.3471 18.6323 32.6404 21.4356 31.8947C24.2388 31.1491 26.6777 29.4147 28.3024 27.0116C29.927 24.6085 30.6276 21.6989 30.275 18.8197C29.9224 15.9405 28.5403 13.286 26.3838 11.346L27.5488 8.973L25.6038 8.018C26.3923 6.82984 27.532 5.91742 28.8638 5.408C29.9825 5.07008 31.1836 5.12907 32.2638 5.575L29.2108 7.6L34.2198 7.818L35.5598 12.648L37.3148 7.948L42.3228 8.168L38.3988 5.048L40.1538 0.352ZM23.8838 20.157L21.9228 19.194C22.0686 18.7902 22.0506 18.3453 21.8727 17.9546C21.6948 17.5639 21.3711 17.2582 20.9708 17.103L19.2538 16.26C18.8864 16.0379 18.4465 15.9686 18.0286 16.0669C17.6106 16.1653 17.2478 16.4234 17.0178 16.786C16.8721 17.1897 16.8901 17.6344 17.068 18.025C17.2459 18.4155 17.5696 18.721 17.9698 18.876L19.6858 19.719C20.5986 20.1571 21.3181 20.9161 21.7068 21.851C21.9033 22.3081 21.9986 22.8023 21.986 23.2997C21.9734 23.797 21.8533 24.2858 21.6339 24.7323C21.4145 25.1789 21.1011 25.5727 20.7151 25.8866C20.3291 26.2005 19.8797 26.4272 19.3978 26.551C19.0528 26.6455 18.6966 26.6936 18.3388 26.694C17.7394 26.6876 17.1482 26.5532 16.6048 26.3L15.9558 27.622L13.9948 26.659L14.6428 25.34C13.7858 24.8977 13.1115 24.1681 12.7378 23.279C12.5428 22.8215 12.4482 22.3275 12.4605 21.8303C12.4727 21.3331 12.5915 20.8443 12.8088 20.397L14.7708 21.359C14.6915 21.5302 14.6496 21.7163 14.6478 21.9049C14.6461 22.0936 14.6846 22.2804 14.7608 22.453C14.9477 22.8929 15.2897 23.2488 15.7218 23.453L17.4388 24.296C17.8641 24.5124 18.3538 24.5661 18.8158 24.447C19.0006 24.4058 19.1737 24.3236 19.3223 24.2065C19.471 24.0894 19.5915 23.9403 19.6748 23.7704C19.7581 23.6005 19.8022 23.414 19.8038 23.2247C19.8053 23.0355 19.7644 22.8483 19.6838 22.677C19.4974 22.2372 19.1557 21.8813 18.7238 21.677L17.0068 20.835C16.0852 20.4262 15.3629 19.6693 14.9975 18.7297C14.6321 17.79 14.6535 16.744 15.0568 15.82C15.5292 14.9578 16.3173 14.3122 17.2557 14.0189C18.194 13.7256 19.2095 13.8073 20.0888 14.247L20.7368 12.928L22.6988 13.892L22.0508 15.21C22.9374 15.6368 23.6238 16.3909 23.9657 17.3136C24.3076 18.2362 24.2782 19.2555 23.8838 20.157V20.157Z" fill="black"/>
<path d="M18.3228 43C21.0842 43 23.3228 40.7614 23.3228 38C23.3228 35.2386 21.0842 33 18.3228 33C15.5613 33 13.3228 35.2386 13.3228 38C13.3228 40.7614 15.5613 43 18.3228 43Z" fill="black"/>
<path d="M30.337 25.3284C30.237 25.5584 30.144 25.7894 30.037 26.0164C29.4173 27.2759 28.5969 28.4263 27.608 29.4224L31.323 35.0004L24.323 43.0004H12.323L5.32296 35.0004L9.06497 29.3874C7.90389 28.2022 6.98029 26.8058 6.34396 25.2734L0.489964 34.2174C0.148992 34.7383 -0.0214851 35.3524 0.00216658 35.9745C0.0258183 36.5966 0.242427 37.1959 0.621964 37.6894L9.32296 49.0004V62.0004H27.323V49.0004L36.023 37.6894C36.4025 37.1959 36.6191 36.5966 36.6428 35.9745C36.6664 35.3524 36.4959 34.7383 36.155 34.2174L30.337 25.3284Z" fill="black"/>
</svg>
