<?xml version="1.0" encoding="UTF-8" standalone="no"?> <svg id="Layer_1" data-name="Layer 1" xmlns="http://www.w3.org/2000/svg" viewBox="0 0 64 64"><path d="M53.831,1.352,49.651,4.12,45.728,1l.979,3.528a7.18,7.18,0,0,0-4.841-.2A9.124,9.124,0,0,0,37.3,8.044l-1.957-.961L34.176,9.457a12.018,12.018,0,1,0,5.885,2.889l1.165-2.373-1.945-.955a6.849,6.849,0,0,1,3.26-2.61,5.069,5.069,0,0,1,3.4.167L42.888,8.6l5.009.218,1.34,4.83,1.755-4.7L56,9.168l-3.924-3.12ZM37.561,21.157,35.6,20.194a1.644,1.644,0,0,0-.952-2.091l-1.717-.843a1.642,1.642,0,0,0-2.236.526,1.643,1.643,0,0,0,.952,2.09l1.716.843a4.119,4.119,0,0,1,2.021,2.132,3.447,3.447,0,0,1-2.309,4.7,4.029,4.029,0,0,1-1.059.143,4.212,4.212,0,0,1-1.734-.394l-.649,1.322-1.961-.963.648-1.319a4.112,4.112,0,0,1-1.905-2.061,3.476,3.476,0,0,1,.071-2.882l1.962.962a1.327,1.327,0,0,0-.01,1.094,1.949,1.949,0,0,0,.961,1l1.717.843a1.958,1.958,0,0,0,1.377.151,1.263,1.263,0,0,0,.868-1.77,1.947,1.947,0,0,0-.96-1l-1.717-.842a3.816,3.816,0,0,1-1.95-5.015,3.8,3.8,0,0,1,5.032-1.573l.648-1.319,1.962.964-.648,1.318A3.8,3.8,0,0,1,37.561,21.157Z"/><circle cx="32" cy="39" r="5"/><path d="M44.014,26.328c-.1.23-.193.461-.3.688a12.949,12.949,0,0,1-2.429,3.406L45,36l-7,8H26l-7-8,3.742-5.613a13.008,13.008,0,0,1-2.721-4.114l-5.854,8.944a3,3,0,0,0,.132,3.472L23,50V63H41V50l8.7-11.311a3,3,0,0,0,.132-3.472Z"/></svg>