<svg width="43" height="43" viewBox="0 0 51 70" fill="none" xmlns="http://www.w3.org/2000/svg">
<g filter="url(#filter0_d_413_295)">
<path d="M44.1538 0.352L39.9738 3.12L36.0508 0L37.0298 3.528C35.4881 2.90244 33.7769 2.83175 32.1888 3.328C30.2981 4.02814 28.6924 5.33485 27.6228 7.044L25.6658 6.083L24.4988 8.457C21.645 7.93741 18.6996 8.46753 16.206 9.94952C13.7125 11.4315 11.8391 13.7654 10.9315 16.5205C10.0239 19.2755 10.1435 22.2659 11.268 24.9398C12.3926 27.6136 14.4462 29.7905 17.0501 31.0688C19.654 32.3471 22.6323 32.6404 25.4356 31.8947C28.2388 31.1491 30.6777 29.4147 32.3024 27.0116C33.927 24.6085 34.6276 21.6989 34.275 18.8197C33.9224 15.9405 32.5403 13.286 30.3838 11.346L31.5488 8.973L29.6038 8.018C30.3923 6.82984 31.532 5.91742 32.8638 5.408C33.9825 5.07008 35.1836 5.12907 36.2638 5.575L33.2108 7.6L38.2198 7.818L39.5598 12.648L41.3148 7.948L46.3228 8.168L42.3988 5.048L44.1538 0.352ZM27.8838 20.157L25.9228 19.194C26.0686 18.7902 26.0506 18.3453 25.8727 17.9546C25.6948 17.5639 25.3711 17.2582 24.9708 17.103L23.2538 16.26C22.8864 16.0379 22.4465 15.9686 22.0286 16.0669C21.6106 16.1653 21.2478 16.4234 21.0178 16.786C20.8721 17.1897 20.8901 17.6344 21.068 18.025C21.2459 18.4155 21.5696 18.721 21.9698 18.876L23.6858 19.719C24.5986 20.1571 25.3181 20.9161 25.7068 21.851C25.9033 22.3081 25.9986 22.8023 25.986 23.2997C25.9734 23.797 25.8533 24.2858 25.6339 24.7323C25.4145 25.1789 25.1011 25.5727 24.7151 25.8866C24.3291 26.2005 23.8797 26.4272 23.3978 26.551C23.0528 26.6455 22.6966 26.6936 22.3388 26.694C21.7394 26.6876 21.1482 26.5532 20.6048 26.3L19.9558 27.622L17.9948 26.659L18.6428 25.34C17.7858 24.8977 17.1115 24.1681 16.7378 23.279C16.5428 22.8215 16.4482 22.3275 16.4605 21.8303C16.4727 21.3331 16.5915 20.8443 16.8088 20.397L18.7708 21.359C18.6915 21.5302 18.6496 21.7163 18.6478 21.9049C18.6461 22.0936 18.6846 22.2804 18.7608 22.453C18.9477 22.8929 19.2897 23.2488 19.7218 23.453L21.4388 24.296C21.8641 24.5124 22.3538 24.5661 22.8158 24.447C23.0006 24.4058 23.1737 24.3236 23.3223 24.2065C23.471 24.0894 23.5915 23.9403 23.6748 23.7704C23.7581 23.6005 23.8022 23.414 23.8038 23.2247C23.8053 23.0355 23.7644 22.8483 23.6838 22.677C23.4974 22.2372 23.1557 21.8813 22.7238 21.677L21.0068 20.835C20.0852 20.4262 19.3629 19.6693 18.9975 18.7297C18.6321 17.79 18.6535 16.744 19.0568 15.82C19.5292 14.9578 20.3173 14.3122 21.2557 14.0189C22.194 13.7256 23.2095 13.8073 24.0888 14.247L24.7368 12.928L26.6988 13.892L26.0508 15.21C26.9374 15.6368 27.6238 16.3909 27.9657 17.3136C28.3076 18.2362 28.2782 19.2555 27.8838 20.157V20.157Z" fill="#9E2F2F"/>
<path d="M22.3228 43C25.0842 43 27.3228 40.7614 27.3228 38C27.3228 35.2386 25.0842 33 22.3228 33C19.5613 33 17.3228 35.2386 17.3228 38C17.3228 40.7614 19.5613 43 22.3228 43Z" fill="#9E2F2F"/>
<path d="M34.337 25.3284C34.237 25.5584 34.144 25.7894 34.037 26.0164C33.4173 27.2759 32.5969 28.4263 31.608 29.4224L35.323 35.0004L28.323 43.0004H16.323L9.32296 35.0004L13.065 29.3874C11.9039 28.2022 10.9803 26.8058 10.344 25.2734L4.48996 34.2174C4.14899 34.7383 3.97851 35.3524 4.00217 35.9745C4.02582 36.5966 4.24243 37.1959 4.62196 37.6894L13.323 49.0004V62.0004H31.323V49.0004L40.023 37.6894C40.4025 37.1959 40.6191 36.5966 40.6428 35.9745C40.6664 35.3524 40.4959 34.7383 40.155 34.2174L34.337 25.3284Z" fill="#9E2F2F"/>
</g>
<defs>
<filter id="filter0_d_413_295" x="0" y="0" width="50.3228" height="70" filterUnits="userSpaceOnUse" color-interpolation-filters="sRGB">
<feFlood flood-opacity="0" result="BackgroundImageFix"/>
<feColorMatrix in="SourceAlpha" type="matrix" values="0 0 0 0 0 0 0 0 0 0 0 0 0 0 0 0 0 0 127 0" result="hardAlpha"/>
<feOffset dy="4"/>
<feGaussianBlur stdDeviation="2"/>
<feComposite in2="hardAlpha" operator="out"/>
<feColorMatrix type="matrix" values="0 0 0 0 0 0 0 0 0 0 0 0 0 0 0 0 0 0 0.25 0"/>
<feBlend mode="normal" in2="BackgroundImageFix" result="effect1_dropShadow_413_295"/>
<feBlend mode="normal" in="SourceGraphic" in2="effect1_dropShadow_413_295" result="shape"/>
</filter>
</defs>
</svg>
