<svg width="40" height="40" viewBox="0 0 40 40" fill="none" xmlns="http://www.w3.org/2000/svg">
<path d="M37.9592 35.4883H2.04082C0.913741 35.4883 0 36.4982 0 37.7439C0 38.9896 0.913741 39.9996 2.04082 39.9996H37.9592C39.0863 39.9996 40 38.9896 40 37.7439C40 36.4982 39.0863 35.4883 37.9592 35.4883Z" fill="black"/>
<path d="M4.14945 32.1804H10.544C11.2579 32.1804 11.8365 31.5409 11.8365 30.7519V11.203C11.8365 10.414 11.2579 9.77441 10.544 9.77441H4.14945C3.43557 9.77441 2.85693 10.414 2.85693 11.203V30.7519C2.85693 31.5409 3.43557 32.1804 4.14945 32.1804Z" fill="black"/>
<path d="M16.8028 32.1804H23.1973C23.9112 32.1804 24.4898 31.5409 24.4898 30.7519V1.42857C24.4898 0.639549 23.9112 0 23.1973 0H16.8028C16.0889 0 15.5103 0.639549 15.5103 1.42857V30.7519C15.5103 31.5409 16.0889 32.1804 16.8028 32.1804Z" fill="black"/>
<path d="M29.4556 32.1808H35.8502C36.564 32.1808 37.1427 31.5412 37.1427 30.7522V14.9628C37.1427 14.1737 36.564 13.5342 35.8502 13.5342H29.4556C28.7417 13.5342 28.1631 14.1737 28.1631 14.9628V30.7522C28.1631 31.5412 28.7417 32.1808 29.4556 32.1808Z" fill="black"/>
</svg>
